<svg width="356" height="303" viewBox="0 0 356 303" fill="none" xmlns="http://www.w3.org/2000/svg">
<path fill-rule="evenodd" clip-rule="evenodd" d="M121.623 210.298C119.653 208.234 116.359 208.234 114.39 210.298L27.3912 301.43C25.4215 303.493 22.1276 303.493 20.158 301.43L1.71884 282.115C-0.125678 280.183 -0.125682 277.142 1.71883 275.21L114.39 157.185C116.359 155.122 119.653 155.122 121.623 157.185L174.181 212.241C176.151 214.304 179.445 214.304 181.415 212.241L233.973 157.185C235.943 155.122 239.236 155.122 241.206 157.185L353.877 275.21C355.721 277.142 355.721 280.183 353.877 282.115L335.438 301.43C333.468 303.493 330.174 303.493 328.205 301.43L241.206 210.298C239.236 208.234 235.943 208.234 233.973 210.298L206.445 239.133C204.601 241.065 204.601 244.106 206.445 246.038L234.294 275.21C236.138 277.142 236.138 280.183 234.294 282.115L215.854 301.43C213.885 303.493 210.591 303.493 208.621 301.43L181.415 272.93C179.445 270.867 176.151 270.867 174.181 272.93L146.975 301.43C145.005 303.493 141.711 303.493 139.741 301.43L121.302 282.115C119.458 280.183 119.458 277.142 121.302 275.21L149.15 246.038C150.995 244.106 150.995 241.065 149.15 239.133L121.623 210.298Z" fill="#0A1931"/>
<path d="M82.0114 148.858C83.9811 150.921 87.275 150.921 89.2446 148.858L176.243 57.7255C178.213 55.6623 181.507 55.6623 183.476 57.7255L270.475 148.858C272.444 150.921 275.738 150.921 277.708 148.858L296.147 129.543C297.992 127.611 297.992 124.57 296.147 122.638L183.476 4.61287C181.507 2.54961 178.213 2.54961 176.243 4.61287L63.5723 122.638C61.7278 124.57 61.7278 127.611 63.5723 129.543L82.0114 148.858Z" fill="#FCB60D"/>
</svg>
