<svg width="73" height="73" viewBox="0 0 73 73" fill="none" xmlns="http://www.w3.org/2000/svg">
<path d="M36.5 73C46.1804 73 55.4643 69.1545 62.3094 62.3094C69.1545 55.4643 73 46.1804 73 36.5C73 26.8196 69.1545 17.5357 62.3094 10.6906C55.4643 3.84553 46.1804 0 36.5 0C26.8196 0 17.5357 3.84553 10.6906 10.6906C3.84553 17.5357 0 26.8196 0 36.5C0 46.1804 3.84553 55.4643 10.6906 62.3094C17.5357 69.1545 26.8196 73 36.5 73ZM31.9375 29.6562C31.9375 33.434 29.8935 36.5 27.375 36.5C24.8565 36.5 22.8125 33.434 22.8125 29.6562C22.8125 25.8785 24.8565 22.8125 27.375 22.8125C29.8935 22.8125 31.9375 25.8785 31.9375 29.6562ZM19.5503 43.6494C20.0743 43.3469 20.6969 43.265 21.2813 43.4215C21.8657 43.5781 22.364 43.9604 22.6665 44.4844C24.0677 46.9132 26.0841 48.9299 28.5126 50.3316C30.9411 51.7333 33.696 52.4704 36.5 52.4688C39.304 52.4704 42.0589 51.7333 44.4874 50.3316C46.9159 48.9299 48.9323 46.9132 50.3335 44.4844C50.4822 44.2228 50.6812 43.9933 50.9189 43.809C51.1567 43.6246 51.4286 43.4892 51.7189 43.4103C52.0093 43.3315 52.3123 43.3109 52.6107 43.3497C52.909 43.3885 53.1967 43.4859 53.4573 43.6363C53.7178 43.7867 53.946 43.9872 54.1288 44.2262C54.3115 44.4652 54.4452 44.7379 54.5221 45.0288C54.599 45.3197 54.6176 45.6229 54.5769 45.9209C54.5361 46.219 54.4368 46.5061 54.2846 46.7656C52.483 49.888 49.8907 52.4807 46.7686 54.2828C43.6465 56.0849 40.1049 57.0329 36.5 57.0312C32.8951 57.0329 29.3535 56.0849 26.2314 54.2828C23.1093 52.4807 20.517 49.888 18.7154 46.7656C18.4129 46.2417 18.3309 45.619 18.4875 45.0346C18.6441 44.4502 19.0264 43.952 19.5503 43.6494ZM45.625 36.5C43.1065 36.5 41.0625 33.434 41.0625 29.6562C41.0625 25.8785 43.1065 22.8125 45.625 22.8125C48.1435 22.8125 50.1875 25.8785 50.1875 29.6562C50.1875 33.434 48.1435 36.5 45.625 36.5Z" fill="#FFC947"/>
</svg>
